{
	"patcher" : 	{
		"fileversion" : 1,
		"appversion" : 		{
			"major" : 8,
			"minor" : 6,
			"revision" : 4,
			"architecture" : "x64",
			"modernui" : 1
		}
,
		"classnamespace" : "box",
		"rect" : [ 656.0, 226.0, 1809.0, 1240.0 ],
		"bglocked" : 0,
		"openinpresentation" : 0,
		"default_fontsize" : 12.0,
		"default_fontface" : 0,
		"default_fontname" : "Arial",
		"gridonopen" : 1,
		"gridsize" : [ 15.0, 15.0 ],
		"gridsnaponopen" : 1,
		"objectsnaponopen" : 1,
		"statusbarvisible" : 2,
		"toolbarvisible" : 1,
		"lefttoolbarpinned" : 0,
		"toptoolbarpinned" : 0,
		"righttoolbarpinned" : 0,
		"bottomtoolbarpinned" : 0,
		"toolbars_unpinned_last_save" : 0,
		"tallnewobj" : 0,
		"boxanimatetime" : 200,
		"enablehscroll" : 1,
		"enablevscroll" : 1,
		"devicewidth" : 0.0,
		"description" : "",
		"digest" : "",
		"tags" : "",
		"style" : "",
		"subpatcher_template" : "sig1.3",
		"assistshowspatchername" : 0,
		"boxes" : [ 			{
				"box" : 				{
					"id" : "obj-112",
					"maxclass" : "newobj",
					"numinlets" : 2,
					"numoutlets" : 0,
					"patching_rect" : [ 751.538533210754395, 257.076957702636719, 35.0, 22.0 ],
					"text" : "dac~"
				}

			}
, 			{
				"box" : 				{
					"id" : "obj-113",
					"lastchannelcount" : 0,
					"maxclass" : "live.gain~",
					"numinlets" : 2,
					"numoutlets" : 5,
					"outlettype" : [ "signal", "signal", "", "float", "list" ],
					"parameter_enable" : 1,
					"patching_rect" : [ 751.538533210754395, 100.923096656799316, 48.0, 136.0 ],
					"saved_attribute_attributes" : 					{
						"valueof" : 						{
							"parameter_longname" : "live.gain~[1]",
							"parameter_mmax" : 6.0,
							"parameter_mmin" : -70.0,
							"parameter_modmode" : 3,
							"parameter_shortname" : "live.gain~",
							"parameter_type" : 0,
							"parameter_unitstyle" : 4
						}

					}
,
					"varname" : "live.gain~[1]"
				}

			}
, 			{
				"box" : 				{
					"id" : "obj-111",
					"maxclass" : "newobj",
					"numinlets" : 2,
					"numoutlets" : 0,
					"patching_rect" : [ 672.115448951721191, 807.692384719848633, 35.0, 22.0 ],
					"text" : "dac~"
				}

			}
, 			{
				"box" : 				{
					"id" : "obj-110",
					"lastchannelcount" : 0,
					"maxclass" : "live.gain~",
					"numinlets" : 2,
					"numoutlets" : 5,
					"outlettype" : [ "signal", "signal", "", "float", "list" ],
					"parameter_enable" : 1,
					"patching_rect" : [ 672.115448951721191, 651.53852367401123, 48.0, 136.0 ],
					"saved_attribute_attributes" : 					{
						"valueof" : 						{
							"parameter_longname" : "live.gain~",
							"parameter_mmax" : 6.0,
							"parameter_mmin" : -70.0,
							"parameter_modmode" : 3,
							"parameter_shortname" : "live.gain~",
							"parameter_type" : 0,
							"parameter_unitstyle" : 4
						}

					}
,
					"varname" : "live.gain~"
				}

			}
, 			{
				"box" : 				{
					"id" : "obj-109",
					"maxclass" : "newobj",
					"numinlets" : 1,
					"numoutlets" : 1,
					"outlettype" : [ "" ],
					"patching_rect" : [ 672.115448951721191, 558.461591720581055, 72.0, 22.0 ],
					"text" : "prepend set"
				}

			}
, 			{
				"box" : 				{
					"id" : "obj-108",
					"maxclass" : "toggle",
					"numinlets" : 1,
					"numoutlets" : 1,
					"outlettype" : [ "int" ],
					"parameter_enable" : 0,
					"patching_rect" : [ 56.153851509094238, 206.923096656799316, 24.0, 24.0 ]
				}

			}
, 			{
				"box" : 				{
					"id" : "obj-106",
					"maxclass" : "newobj",
					"numinlets" : 2,
					"numoutlets" : 1,
					"outlettype" : [ "bang" ],
					"patching_rect" : [ 56.153851509094238, 247.692331314086914, 56.0, 22.0 ],
					"text" : "metro 10"
				}

			}
, 			{
				"box" : 				{
					"basictuning" : 440,
					"data" : 					{
						"clips" : [ 							{
								"absolutepath" : "cello-f2.aif",
								"filename" : "cello-f2.aif",
								"filekind" : "audiofile",
								"id" : "u883002255",
								"loop" : 1,
								"content_state" : 								{
									"loop" : 1
								}

							}
 ]
					}
,
					"followglobaltempo" : 0,
					"formantcorrection" : 0,
					"id" : "obj-104",
					"maxclass" : "playlist~",
					"mode" : "basic",
					"numinlets" : 1,
					"numoutlets" : 5,
					"originallength" : [ 0.0, "ticks" ],
					"originaltempo" : 120.0,
					"outlettype" : [ "signal", "signal", "signal", "", "dictionary" ],
					"parameter_enable" : 0,
					"patching_rect" : [ 351.538495063781738, 206.923096656799316, 150.0, 30.0 ],
					"pitchcorrection" : 0,
					"quality" : "basic",
					"timestretch" : [ 0 ]
				}

			}
, 			{
				"box" : 				{
					"id" : "obj-102",
					"maxclass" : "newobj",
					"numinlets" : 2,
					"numoutlets" : 1,
					"outlettype" : [ "" ],
					"patching_rect" : [ 387.692344665527344, 492.3077392578125, 63.0, 22.0 ],
					"text" : "bach.* 10."
				}

			}
, 			{
				"box" : 				{
					"id" : "obj-99",
					"maxclass" : "newobj",
					"numinlets" : 1,
					"numoutlets" : 2,
					"outlettype" : [ "bang", "bang" ],
					"patching_rect" : [ 203.846173286437988, 356.15388011932373, 32.0, 22.0 ],
					"text" : "t b b"
				}

			}
, 			{
				"box" : 				{
					"id" : "obj-98",
					"maxclass" : "newobj",
					"numinlets" : 2,
					"numoutlets" : 2,
					"outlettype" : [ "", "" ],
					"patching_rect" : [ 672.115448951721191, 505.50004768371582, 43.0, 22.0 ],
					"text" : "zl.lace"
				}

			}
, 			{
				"box" : 				{
					"id" : "obj-93",
					"maxclass" : "newobj",
					"numinlets" : 2,
					"numoutlets" : 2,
					"outlettype" : [ "", "" ],
					"patching_rect" : [ 674.615448951721191, 423.846194267272949, 38.0, 22.0 ],
					"text" : "zl.reg"
				}

			}
, 			{
				"box" : 				{
					"id" : "obj-95",
					"maxclass" : "newobj",
					"numinlets" : 2,
					"numoutlets" : 1,
					"outlettype" : [ "" ],
					"patching_rect" : [ 693.846220016479492, 393.076960563659668, 59.0, 22.0 ],
					"text" : "thresh 10"
				}

			}
, 			{
				"box" : 				{
					"id" : "obj-90",
					"maxclass" : "newobj",
					"numinlets" : 4,
					"numoutlets" : 1,
					"outlettype" : [ "signal" ],
					"patching_rect" : [ 672.115448951721191, 609.230827331542969, 60.0, 22.0 ],
					"text" : "oscbank~"
				}

			}
, 			{
				"box" : 				{
					"id" : "obj-86",
					"linecount" : 2,
					"maxclass" : "comment",
					"numinlets" : 1,
					"numoutlets" : 0,
					"patching_rect" : [ 156.153861045837402, 424.846194267272949, 209.230789184570312, 33.0 ],
					"presentation_linecount" : 2,
					"text" : "group partials into a list if \"close\" in time"
				}

			}
, 			{
				"box" : 				{
					"id" : "obj-85",
					"maxclass" : "newobj",
					"numinlets" : 1,
					"numoutlets" : 1,
					"outlettype" : [ "" ],
					"patching_rect" : [ 488.46158504486084, 609.230827331542969, 125.0, 22.0 ],
					"text" : "loadmess clefs FFGG"
				}

			}
, 			{
				"box" : 				{
					"id" : "obj-82",
					"maxclass" : "newobj",
					"numinlets" : 1,
					"numoutlets" : 1,
					"outlettype" : [ "" ],
					"patching_rect" : [ 488.46158504486084, 558.461591720581055, 119.0, 22.0 ],
					"text" : "prepend tonedivision"
				}

			}
, 			{
				"box" : 				{
					"id" : "obj-77",
					"maxclass" : "button",
					"numinlets" : 1,
					"numoutlets" : 1,
					"outlettype" : [ "bang" ],
					"parameter_enable" : 0,
					"patching_rect" : [ 203.846173286437988, 206.923096656799316, 133.538472175598145, 133.538472175598145 ]
				}

			}
, 			{
				"box" : 				{
					"id" : "obj-75",
					"maxclass" : "newobj",
					"numinlets" : 2,
					"numoutlets" : 2,
					"outlettype" : [ "", "" ],
					"patching_rect" : [ 387.692344665527344, 423.846194267272949, 38.0, 22.0 ],
					"text" : "zl.reg"
				}

			}
, 			{
				"box" : 				{
					"id" : "obj-72",
					"items" : [ 2, ",", 4, ",", 8 ],
					"maxclass" : "umenu",
					"numinlets" : 1,
					"numoutlets" : 3,
					"outlettype" : [ "int", "", "" ],
					"parameter_enable" : 0,
					"patching_rect" : [ 478.461584091186523, 485.384661674499512, 39.500010013580322, 22.0 ]
				}

			}
, 			{
				"box" : 				{
					"id" : "obj-71",
					"linecount" : 2,
					"maxclass" : "comment",
					"numinlets" : 1,
					"numoutlets" : 0,
					"patching_rect" : [ 156.153861045837402, 516.923126220703125, 209.230789184570312, 33.0 ],
					"text" : "quantize to semitones, quartertones, eighthtones"
				}

			}
, 			{
				"box" : 				{
					"id" : "obj-70",
					"linecount" : 2,
					"maxclass" : "comment",
					"numinlets" : 1,
					"numoutlets" : 0,
					"patching_rect" : [ 156.153861045837402, 457.576967239379883, 209.230789184570312, 33.0 ],
					"text" : "wrap the list in 2 levels of parentheses to make it a single chord"
				}

			}
, 			{
				"box" : 				{
					"id" : "obj-68",
					"maxclass" : "newobj",
					"numinlets" : 2,
					"numoutlets" : 1,
					"outlettype" : [ "" ],
					"patching_rect" : [ 387.692344665527344, 522.307742118835449, 85.0, 22.0 ],
					"text" : "bach.approx 2"
				}

			}
, 			{
				"box" : 				{
					"bwcompatibility" : 80300,
					"clefs" : [ "FFGG" ],
					"defaultnoteslots" : [ "null" ],
					"fontface" : 0,
					"fontname" : "Arial",
					"fontsize" : 12.0,
					"id" : "obj-55",
					"loop" : [ 0, 1000 ],
					"maxclass" : "bach.roll",
					"numinlets" : 6,
					"numoutlets" : 8,
					"numvoices" : 1,
					"out" : "nnnnnnn",
					"outlettype" : [ "", "", "", "", "", "", "", "bang" ],
					"patching_rect" : [ 387.692344665527344, 666.153909683227539, 263.076948165893555, 260.000024795532227 ],
					"pitcheditrange" : [ "null" ],
					"stafflines" : [ 5 ],
					"textcolor" : [ 0.0, 0.0, 0.0, 1.0 ],
					"tonedivision" : 8,
					"versionnumber" : 80300,
					"voicenames" : [ "[", "]" ],
					"voicespacing" : [ 0.0, 17.0 ],
					"whole_roll_data_0000000000" : [ "roll", "[", "slotinfo", "[", 1, "[", "name", "velocity envelope", "]", "[", "type", "function", "]", "[", "key", 0, "]", "[", "range", "_x_x_x_x_bach_float64_x_x_x_x_", 0, 0, "_x_x_x_x_bach_float64_x_x_x_x_", 0, 1080016896, "]", "[", "slope", "_x_x_x_x_bach_float64_x_x_x_x_", 0, 0, "]", "[", "representation", "]", "[", "grid", "]", "[", "ysnap", "]", "[", "domain", "_x_x_x_x_bach_float64_x_x_x_x_", 0, 0, "_x_x_x_x_bach_float64_x_x_x_x_", 0, 1072693248, "]", "[", "domainslope", "_x_x_x_x_bach_float64_x_x_x_x_", 0, 0, "]", "[", "temporalmode", "relative", "]", "[", "extend", 0, "]", "[", "width", "auto", "]", "[", "height", "auto", "]", "[", "copywhensplit", 0, "]", "[", "access", "readandwrite", "]", "[", "follownotehead", 0, "]", "]", "[", 2, "[", "name", "slot function", "]", "[", "type", "function", "]", "[", "key", 0, "]", "[", "range", "_x_x_x_x_bach_float64_x_x_x_x_", 0, 0, "_x_x_x_x_bach_float64_x_x_x_x_", 0, 1072693248, "]", "[", "slope", "_x_x_x_x_bach_float64_x_x_x_x_", 0, 0, "]", "[", "representation", "]", "[", "grid", "]", "[", "ysnap", "]", "[", "domain", "_x_x_x_x_bach_float64_x_x_x_x_", 0, 0, "_x_x_x_x_bach_float64_x_x_x_x_", 0, 1072693248, "]", "[", "domainslope", "_x_x_x_x_bach_float64_x_x_x_x_", 0, 0, "]", "[", "temporalmode", "relative", "]", "[", "extend", 0, "]", "[", "width", "auto", "]", "[", "height", "auto", "]", "[", "copywhensplit", 0, "]", "[", "access", "readandwrite", "]", "[", "follownotehead", 0, "]", "]", "[", 3, "[", "name", "slot intlist", "]", "[", "type", "intlist", "]", "[", "key", 0, "]", "[", "range", "_x_x_x_x_bach_float64_x_x_x_x_", 0, 0, "_x_x_x_x_bach_float64_x_x_x_x_", 0, 1080016896, "]", "[", "slope", "_x_x_x_x_bach_float64_x_x_x_x_", 0, 0, "]", "[", "representation", "]", "[", "default", "_x_x_x_x_bach_float64_x_x_x_x_", 0, 1078984704, "]", "[", "temporalmode", "none", "]", "[", "extend", 0, "]", "[", "width", "_x_x_x_x_bach_float64_x_x_x_x_", 0, 1079574528, "]", "[", "height", "auto", "]", "[", "copywhensplit", 1, "]", "[", "access", "readandwrite", "]", "[", "follownotehead", 0, "]", "]", "[", 4, "[", "name", "slot floatlist", "]", "[", "type", "floatlist", "]", "[", "key", 0, "]", "[", "range", "_x_x_x_x_bach_float64_x_x_x_x_", 0, 0, "_x_x_x_x_bach_float64_x_x_x_x_", 0, 1072693248, "]", "[", "slope", "_x_x_x_x_bach_float64_x_x_x_x_", 0, 0, "]", "[", "representation", "]", "[", "default", "_x_x_x_x_bach_float64_x_x_x_x_", 0, 0, "]", "[", "temporalmode", "none", "]", "[", "extend", 0, "]", "[", "width", "_x_x_x_x_bach_float64_x_x_x_x_", 0, 1079574528, "]", "[", "height", "auto", "]", "[", "copywhensplit", 1, "]", "[", "access", "readandwrite", "]", "[", "follownotehead", 0, "]", "]", "[", 5, "[", "name", "slot int", "]", "[", "type", "int", "]", "[", "key", 0, "]", "[", "range", "_x_x_x_x_bach_float64_x_x_x_x_", 0, 0, "_x_x_x_x_bach_float64_x_x_x_x_", 0, 1080016896, "]", "[", "slope", "_x_x_x_x_bach_float64_x_x_x_x_", 0, 0, "]", "[", "representation", "]", "[", "default", "_x_x_x_x_bach_float64_x_x_x_x_", 0, 1078984704, "]", "[", "temporalmode", "none", "]", "[", "extend", 0, "]", "[", "width", "_x_x_x_x_bach_float64_x_x_x_x_", 0, 1079574528, "]", "[", "height", "auto", "]", "[", "copywhensplit", 1, "]", "[", "access", "readandwrite", "]", "[", "follownotehead", 0, "]", "]", "[", 6, "[", "name", "slot float", "]", "[", "type", "float", "]", "[", "key", 0, "]", "[", "range", "_x_x_x_x_bach_float64_x_x_x_x_", 0, 0, "_x_x_x_x_bach_float64_x_x_x_x_", 0, 1072693248, "]", "[", "slope", "_x_x_x_x_bach_float64_x_x_x_x_", 0, 0, "]", "[", "representation", "]", "[", "default", "_x_x_x_x_bach_float64_x_x_x_x_", 0, 0, "]", "[", "temporalmode", "none", "]", "[", "extend", 0, "]", "[", "width", "_x_x_x_x_bach_float64_x_x_x_x_", 0, 1079574528, "]", "[", "height", "auto", "]", "[", "copywhensplit", 1, "]", "[", "access", "readandwrite", "]", "[", "follownotehead", 0, "]", "]", "[", 7, "[", "name", "slot text", "]", "[", "type", "text", "]", "[", "key", 0, "]", "[", "temporalmode", "none", "]", "[", "extend", 0, "]", "[", "width", "_x_x_x_x_bach_float64_x_x_x_x_", 0, 1079574528, "]", "[", "height", "auto", "]", "[", "copywhensplit", 0, "]", "[", "access", "readandwrite", "]", "[", "follownotehead", 0, "]", "]", "[", 8, "[", "name", "slot filelist", "]", "[", "type", "filelist", "]", "[", "key", 0, "]", "[", "temporalmode", "none", "]", "[", "extend", 0, "]", "[", "width", "_x_x_x_x_bach_float64_x_x_x_x_", 0, 1080213504, "]", "[", "height", "auto", "]", "[", "copywhensplit", 1, "]", "[", "access", "readandwrite", "]", "[", "follownotehead", 0, "]", "]", "[", 9, "[", "name", "slot spat", "]", "[", "type", "spat", "]", "[", "key", 0, "]", "[", "range", "_x_x_x_x_bach_float64_x_x_x_x_", 0, 0, "_x_x_x_x_bach_float64_x_x_x_x_", 0, 1076101120, "]", "[", "slope", "_x_x_x_x_bach_float64_x_x_x_x_", 0, 0, "]", "[", "representation", "]", "[", "temporalmode", "relative", "]", "[", "extend", 0, "]", "[", "width", "auto", "]", "[", "height", "auto", "]", "[", "copywhensplit", 0, "]", "[", "access", "readandwrite", "]", "[", "follownotehead", 0, "]", "]", "[", 10, "[", "name", "slot llll", "]", "[", "type", "llll", "]", "[", "key", 0, "]", "[", "temporalmode", "none", "]", "[", "extend", 0, "]", "[", "width", "_x_x_x_x_bach_float64_x_x_x_x_", 0, 1079574528, "]", "[", "height", "auto", "]", "[", "copywhensplit", 0, "]", "[", "access", "readandwrite", "]", "[", "follownotehead", 0, "]", "]", "[", 11, "[", "name", "slot 11", "]", "[", "type", "none", "]", "[", "key", 0, "]", "[", "temporalmode", "none", "]", "[", "extend", 0, "]", "[", "width", "_x_x_x_x_bach_float64_x_x_x_x_", 0, 1079574528, "]", "[", "height", "auto", "]", "[", "copywhensplit", 1, "]", "[", "access", "readandwrite", "]", "[", "follownotehead", 0, "]", "]", "[", 12, "[", "name", "slot 12", "]", "[", "type", "none", "]", "[", "key", 0, "]", "[", "temporalmode", "none", "]", "[", "extend", 0, "]", "[", "width", "_x_x_x_x_bach_float64_x_x_x_x_", 0, 1079574528, "]", "[", "height", "auto", "]", "[", "copywhensplit", 1, "]", "[", "access", "readandwrite", "]", "[", "follownotehead", 0, "]", "]", "[", 13, "[", "name", "slot 13", "]", "[", "type", "none", "]", "[", "key", 0, "]", "[", "temporalmode", "none", "]", "[", "extend", 0, "]", "[", "width", "_x_x_x_x_bach_float64_x_x_x_x_", 0, 1079574528, "]", "[", "height", "auto", "]", "[", "copywhensplit", 1, "]", "[", "access", "readandwrite", "]", "[", "follownotehead", 0, "]", "]", "[", 14, "[", "name", "slot 14", "]", "[", "type", "none", "]", "[", "key", 0, "]", "[", "temporalmode", "none", "]", "[", "extend", 0, "]", "[", "width", "_x_x_x_x_bach_float64_x_x_x_x_", 0, 1079574528, "]", "[", "height", "auto", "]", "[", "copywhensplit", 1, "]", "[", "access", "readandwrite", "]", "[", "follownotehead", 0, "]", "]", "[", 15, "[", "name", "slot 15", "]", "[", "type", "none", "]", "[", "key", 0, "]", "[", "temporalmode", "none", "]", "[", "extend", 0, "]", "[", "width", "_x_x_x_x_bach_float64_x_x_x_x_", 0, 1079574528, "]", "[", "height", "auto", "]", "[", "copywhensplit", 1, "]", "[", "access", "readandwrite", "]", "[", "follownotehead", 0, "]", "]", "[", 16, "[", "name", "slot 16", "]", "[", "type", "none", "]", "[", "key", 0, "]", "[", "temporalmode", "none", "]", "[", "extend", 0, "]", "[", "width", "_x_x_x_x_bach_float64_x_x_x_x_", 0, 1079574528, "]", "[", "height", "auto", "]", "[", "copywhensplit", 1, "]", "[", "access", "readandwrite", "]", "[", "follownotehead", 0, "]", "]", "[", 17, "[", "name", "slot 17", "]", "[", "type", "none", "]", "[", "key", 0, "]", "[", "temporalmode", "none", "]", "[", "extend", 0, "]", "[", "width", "_x_x_x_x_bach_float64_x_x_x_x_", 0, 1079574528, "]", "[", "height", "auto", "]", "[", "copywhensplit", 1, "]", "[", "access", "readandwrite", "]", "[", "follownotehead", 0, "]", "]", "[", 18, "[", "name", "slot 18", "]", "[", "type", "none", "]", "[", "key", 0, "]", "[", "temporalmode", "none", "]", "[", "extend", 0, "]", "[", "width", "_x_x_x_x_bach_float64_x_x_x_x_", 0, 1079574528, "]", "[", "height", "auto", "]", "[", "copywhensplit", 1, "]", "[", "access", "readandwrite", "]", "[", "follownotehead", 0, "]", "]", "[", 19, "[", "name", "slot 19", "]", "[", "type", "none", "]", "[", "key", 0, "]", "[", "temporalmode", "none", "]", "[", "extend", 0, "]", "[", "width", "_x_x_x_x_bach_float64_x_x_x_x_", 0, 1079574528, "]", "[", "height", "auto", "]", "[", "copywhensplit", 1, "]", "[", "access", "readandwrite", "]", "[", "follownotehead", 0, "]", "]", "[", 20, "[", "name", "dynamics", "]", "[", "type", "dynamics", "]", "[", "key", "d", "]", "[", "temporalmode", "none", "]", "[", "extend", 0, "]", "[", "width", "_x_x_x_x_bach_float64_x_x_x_x_", 0, 1079738368, "]", "[", "height", "auto", "]", "[", "copywhensplit", 0, "]", "[", "access", "readandwrite", "]", "[", "follownotehead", 0, "]", "]", "[", 21, "[", "name", "lyrics", "]", "[", "type", "text", "]", "[", "key", "l", "]", "[", "temporalmode", "none", "]", "[", "extend", 0, "]", "[", "width", "_x_x_x_x_bach_float64_x_x_x_x_", 0, 1079574528, "]", "[", "height", "auto", "]", "[", "copywhensplit", 0, "]", "[", "access", "readandwrite", "]", "[", "follownotehead", 0, "]", "]", "[", 22, "[", "name", "articulations", "]", "[", "type", "articulations", "]", "[", "key", "a", "]", "[", "temporalmode", "none", "]", "[", "extend", 0, "]", "[", "width", "_x_x_x_x_bach_float64_x_x_x_x_", 0, 1079738368, "]", "[", "height", "auto", "]", "[", "copywhensplit", 1, "]", "[", "access", "readandwrite", "]", "[", "follownotehead", 0, "]", "]", "[", 23, "[", "name", "notehead", "]", "[", "type", "notehead", "]", "[", "key", "h", "]", "[", "temporalmode", "none", "]", "[", "extend", 0, "]", "[", "width", "_x_x_x_x_bach_float64_x_x_x_x_", 0, 1079738368, "]", "[", "height", "auto", "]", "[", "copywhensplit", 1, "]", "[", "access", "readandwrite", "]", "[", "follownotehead", 0, "]", "]", "[", 24, "[", "name", "annotation", "]", "[", "type", "text", "]", "[", "key", "t", "]", "[", "temporalmode", "none", "]", "[", "extend", 0, "]", "[", "width", "_x_x_x_x_bach_float64_x_x_x_x_", 0, 1079574528, "]", "[", "height", "auto", "]", "[", "copywhensplit", 1, "]", "[", "access", "readandwrite", "]", "[", "follownotehead", 0, "]", "]", "[", 25, "[", "name", "slot 25", "]", "[", "type", "none", "]", "[", "key", 0, "]", "[", "temporalmode", "none", "]", "[", "extend", 0, "]", "[", "width", "_x_x_x_x_bach_float64_x_x_x_x_", 0, 1079574528, "]", "[", "height", "auto", "]", "[", "copywhensplit", 1, "]", "[", "access", "readandwrite", "]", "[", "follownotehead", 0, "]", "]", "[", 26, "[", "name", "slot 26", "]", "[", "type", "none", "]", "[", "key", 0, "]", "[", "temporalmode", "none", "]", "[", "extend", 0, "]", "[", "width", "_x_x_x_x_bach_float64_x_x_x_x_", 0, 1079574528, "]", "[", "height", "auto", "]", "[", "copywhensplit", 1, "]", "[", "access", "readandwrite", "]", "[", "follownotehead", 0, "]", "]", "[", 27, "[", "name", "slot 27", "]", "[", "type", "none", "]", "[", "key", 0, "]", "[", "temporalmode", "none", "]", "[", "extend", 0, "]", "[", "width", "_x_x_x_x_bach_float64_x_x_x_x_", 0, 1079574528, "]", "[", "height", "auto", "]", "[", "copywhensplit", 1, "]", "[", "access", "readandwrite", "]", "[", "follownotehead", 0, "]", "]", "[", 28, "[", "name", "slot 28", "]", "[", "type", "none", "]", "[", "key", 0, "]", "[", "temporalmode", "none", "]", "[", "extend", 0, "]", "[", "width", "_x_x_x_x_bach_float64_x_x_x_x_", 0, 1079574528, "]", "[", "height", "auto", "]", "[", "copywhensplit", 1, "]", "[", "access", "readandwrite", "]", "[", "follownotehead", 0, "]", "]", "[", 29, "[", "name", "slot 29", "]", "[", "type", "none", "]", "[", "key", 0, "]", "[", "temporalmode", "none", "]", "[", "extend", 0, "]", "[", "width", "_x_x_x_x_bach_float64_x_x_x_x_", 0, 1079574528, "]", "[", "height", "auto", "]", "[", "copywhensplit", 1, "]", "[", "access", "readandwrite", "]", "[", "follownotehead", 0, "]", "]", "[", 30, "[", "name", "slot 30", "]", "[", "type", "none", "]", "[", "key", 0, "]", "[", "temporalmode", "none", "]", "[", "extend", 0, "]", "[", "width", "_x_x_x_x_bach_float64_x_x_x_x_", 0, 1079574528, "]", "[", "height", "auto", "]", "[", "copywhensplit", 1, "]", "[", "access", "readandwrite", "]", "[", "follownotehead", 0, "]", "]", "]", "[", "commands", "[", 1, "[", "name", "command", "]", "[", "note", "note", "]", "[", "chord", "chord", "]", "[", "rest", "rest", "]", "[", "marker", "marker", "]", "[", "start", "none", "]", "[", "end", "none", "]", "[", "key", 0, "]", "]", "[", 2, "[", "name", "command", "]", "[", "note", "note", "]", "[", "chord", "chord", "]", "[", "rest", "rest", "]", "[", "marker", "marker", "]", "[", "start", "none", "]", "[", "end", "none", "]", "[", "key", 0, "]", "]", "[", 3, "[", "name", "command", "]", "[", "note", "note", "]", "[", "chord", "chord", "]", "[", "rest", "rest", "]", "[", "marker", "marker", "]", "[", "start", "none", "]", "[", "end", "none", "]", "[", "key", 0, "]", "]", "[", 4, "[", "name", "command", "]", "[", "note", "note", "]", "[", "chord", "chord", "]", "[", "rest", "rest", "]", "[", "marker", "marker", "]", "[", "start", "none", "]", "[", "end", "none", "]", "[", "key", 0, "]", "]", "[", 5, "[", "name", "command", "]", "[", "note", "note", "]", "[", "chord", "chord", "]", "[", "rest", "rest", "]", "[", "marker", "marker", "]", "[", "start", "none", "]", "[", "end", "none", "]", "[", "key", 0, "]", "]", "]", "[", "groups", "]", "[", "markers", "]", "[", "midichannels", 1, "]", "[", "articulationinfo", "]", "[", "noteheadinfo", "]", "[", "[", "_x_x_x_x_bach_float64_x_x_x_x_", 0, 0, "[", "_x_x_x_x_bach_float64_x_x_x_x_", 0, 1082925056, "_x_x_x_x_bach_float64_x_x_x_x_", 0, 1082081280, 100, 0, "]", "[", "_x_x_x_x_bach_float64_x_x_x_x_", 0, 1083871232, "_x_x_x_x_bach_float64_x_x_x_x_", 0, 1082081280, 100, 0, "]", "[", "_x_x_x_x_bach_float64_x_x_x_x_", 0, 1084510208, "_x_x_x_x_bach_float64_x_x_x_x_", 0, 1082081280, 100, 0, "]", "[", "_x_x_x_x_bach_float64_x_x_x_x_", 0, 1084919808, "_x_x_x_x_bach_float64_x_x_x_x_", 0, 1082081280, 100, 0, "]", "[", "_x_x_x_x_bach_float64_x_x_x_x_", 0, 1085328384, "_x_x_x_x_bach_float64_x_x_x_x_", 0, 1082081280, 100, 0, "]", "[", "_x_x_x_x_bach_float64_x_x_x_x_", 0, 1085558784, "_x_x_x_x_bach_float64_x_x_x_x_", 0, 1082081280, 100, 0, "]", "[", "_x_x_x_x_bach_float64_x_x_x_x_", 0, 1085789184, "_x_x_x_x_bach_float64_x_x_x_x_", 0, 1082081280, 100, 0, "]", "[", "_x_x_x_x_bach_float64_x_x_x_x_", 0, 1086504960, "_x_x_x_x_bach_float64_x_x_x_x_", 0, 1082081280, 100, 0, "]", "[", "_x_x_x_x_bach_float64_x_x_x_x_", 0, 1086607360, "_x_x_x_x_bach_float64_x_x_x_x_", 0, 1082081280, 100, 0, "]", "[", "_x_x_x_x_bach_float64_x_x_x_x_", 0, 1086722560, "_x_x_x_x_bach_float64_x_x_x_x_", 0, 1082081280, 100, 0, "]", 0, "]", 0, "]" ],
					"whole_roll_data_count" : [ 1 ]
				}

			}
, 			{
				"box" : 				{
					"id" : "obj-52",
					"maxclass" : "newobj",
					"numinlets" : 2,
					"numoutlets" : 1,
					"outlettype" : [ "float" ],
					"patching_rect" : [ 788.461613655090332, 300.769259452819824, 33.0, 22.0 ],
					"text" : "* 10."
				}

			}
, 			{
				"box" : 				{
					"id" : "obj-51",
					"maxclass" : "newobj",
					"numinlets" : 1,
					"numoutlets" : 2,
					"outlettype" : [ "bang", "" ],
					"patching_rect" : [ 387.692344665527344, 558.461591720581055, 29.5, 22.0 ],
					"text" : "t b l"
				}

			}
, 			{
				"box" : 				{
					"id" : "obj-46",
					"maxclass" : "newobj",
					"numinlets" : 1,
					"numoutlets" : 1,
					"outlettype" : [ "" ],
					"patching_rect" : [ 387.692344665527344, 463.076967239379883, 74.0, 22.0 ],
					"saved_object_attributes" : 					{
						"versionnumber" : 80300
					}
,
					"text" : "bach.wrap 2"
				}

			}
, 			{
				"box" : 				{
					"bgmode" : 0,
					"border" : 0,
					"clickthrough" : 0,
					"enablehscroll" : 0,
					"enablevscroll" : 0,
					"id" : "obj-45",
					"lockeddragscroll" : 0,
					"lockedsize" : 0,
					"maxclass" : "bpatcher",
					"name" : "dsp_cpu.maxpat",
					"numinlets" : 0,
					"numoutlets" : 0,
					"offset" : [ 0.0, 0.0 ],
					"patching_rect" : [ 5.384615898132324, 3.84615421295166, 78.461545944213867, 42.307696342468262 ],
					"viewvisibility" : 1
				}

			}
, 			{
				"box" : 				{
					"id" : "obj-35",
					"maxclass" : "newobj",
					"numinlets" : 2,
					"numoutlets" : 1,
					"outlettype" : [ "" ],
					"patching_rect" : [ 406.923115730285645, 393.076960563659668, 59.0, 22.0 ],
					"text" : "thresh 10"
				}

			}
, 			{
				"box" : 				{
					"id" : "obj-24",
					"maxclass" : "newobj",
					"numinlets" : 1,
					"numoutlets" : 4,
					"outlettype" : [ "int", "float", "float", "float" ],
					"patching_rect" : [ 351.538495063781738, 318.461568832397461, 185.153861999511719, 22.0 ],
					"text" : "unpack 0 0. 0. 0."
				}

			}
, 			{
				"box" : 				{
					"id" : "obj-14",
					"maxclass" : "newobj",
					"numinlets" : 1,
					"numoutlets" : 1,
					"outlettype" : [ "list" ],
					"patching_rect" : [ 351.538495063781738, 281.538488388061523, 395.0, 22.0 ],
					"text" : "sigmund~ @hop 4096 @npts 2048 @npeak 10 @stabletime 1000 tracks"
				}

			}
, 			{
				"box" : 				{
					"id" : "obj-13",
					"maxclass" : "newobj",
					"numinlets" : 1,
					"numoutlets" : 2,
					"outlettype" : [ "", "" ],
					"patching_rect" : [ 2275.384832382202148, 1547.0, 67.0, 22.0 ],
					"save" : [ "#N", "thispatcher", ";", "#Q", "end", ";" ],
					"text" : "thispatcher"
				}

			}
, 			{
				"box" : 				{
					"bgmode" : 0,
					"border" : 0,
					"clickthrough" : 0,
					"enablehscroll" : 0,
					"enablevscroll" : 0,
					"id" : "obj-11",
					"lockeddragscroll" : 0,
					"lockedsize" : 0,
					"maxclass" : "bpatcher",
					"name" : "signature.maxpat",
					"numinlets" : 0,
					"numoutlets" : 0,
					"offset" : [ 0.0, 0.0 ],
					"patching_rect" : [ 1776.846309661865234, 1302.615509033203125, 641.538522720336914, 124.615396499633789 ],
					"viewvisibility" : 1
				}

			}
, 			{
				"box" : 				{
					"id" : "obj-10",
					"maxclass" : "newobj",
					"numinlets" : 2,
					"numoutlets" : 1,
					"outlettype" : [ "bang" ],
					"patching_rect" : [ 2275.384832382202148, 1482.307833671569824, 48.0, 22.0 ],
					"text" : "del 100"
				}

			}
, 			{
				"box" : 				{
					"id" : "obj-9",
					"maxclass" : "newobj",
					"numinlets" : 1,
					"numoutlets" : 2,
					"outlettype" : [ "bang", "" ],
					"patching_rect" : [ 2275.384832382202148, 1456.153985023498535, 146.923090934753418, 22.0 ],
					"text" : "t b l"
				}

			}
, 			{
				"box" : 				{
					"id" : "obj-8",
					"maxclass" : "message",
					"numinlets" : 2,
					"numoutlets" : 1,
					"outlettype" : [ "" ],
					"patching_rect" : [ 2275.384832382202148, 1512.307836532592773, 146.923090934753418, 22.0 ],
					"text" : "zoomfactor 1.3"
				}

			}
, 			{
				"box" : 				{
					"id" : "obj-4",
					"maxclass" : "newobj",
					"numinlets" : 1,
					"numoutlets" : 1,
					"outlettype" : [ "" ],
					"patching_rect" : [ 2275.384832382202148, 1429.230905532836914, 143.0, 22.0 ],
					"text" : "loadmess zoomfactor 1.3"
				}

			}
 ],
		"lines" : [ 			{
				"patchline" : 				{
					"destination" : [ "obj-8", 0 ],
					"source" : [ "obj-10", 0 ]
				}

			}
, 			{
				"patchline" : 				{
					"destination" : [ "obj-68", 0 ],
					"source" : [ "obj-102", 0 ]
				}

			}
, 			{
				"patchline" : 				{
					"destination" : [ "obj-113", 0 ],
					"order" : 0,
					"source" : [ "obj-104", 0 ]
				}

			}
, 			{
				"patchline" : 				{
					"destination" : [ "obj-14", 0 ],
					"order" : 1,
					"source" : [ "obj-104", 0 ]
				}

			}
, 			{
				"patchline" : 				{
					"destination" : [ "obj-99", 0 ],
					"source" : [ "obj-106", 0 ]
				}

			}
, 			{
				"patchline" : 				{
					"destination" : [ "obj-106", 0 ],
					"source" : [ "obj-108", 0 ]
				}

			}
, 			{
				"patchline" : 				{
					"destination" : [ "obj-90", 0 ],
					"source" : [ "obj-109", 0 ]
				}

			}
, 			{
				"patchline" : 				{
					"destination" : [ "obj-111", 1 ],
					"source" : [ "obj-110", 1 ]
				}

			}
, 			{
				"patchline" : 				{
					"destination" : [ "obj-111", 0 ],
					"source" : [ "obj-110", 0 ]
				}

			}
, 			{
				"patchline" : 				{
					"destination" : [ "obj-112", 1 ],
					"source" : [ "obj-113", 1 ]
				}

			}
, 			{
				"patchline" : 				{
					"destination" : [ "obj-112", 0 ],
					"source" : [ "obj-113", 0 ]
				}

			}
, 			{
				"patchline" : 				{
					"destination" : [ "obj-24", 0 ],
					"source" : [ "obj-14", 0 ]
				}

			}
, 			{
				"patchline" : 				{
					"destination" : [ "obj-35", 0 ],
					"source" : [ "obj-24", 1 ]
				}

			}
, 			{
				"patchline" : 				{
					"destination" : [ "obj-95", 0 ],
					"source" : [ "obj-24", 2 ]
				}

			}
, 			{
				"patchline" : 				{
					"destination" : [ "obj-75", 1 ],
					"source" : [ "obj-35", 0 ]
				}

			}
, 			{
				"patchline" : 				{
					"destination" : [ "obj-9", 0 ],
					"source" : [ "obj-4", 0 ]
				}

			}
, 			{
				"patchline" : 				{
					"destination" : [ "obj-102", 0 ],
					"source" : [ "obj-46", 0 ]
				}

			}
, 			{
				"patchline" : 				{
					"destination" : [ "obj-55", 2 ],
					"source" : [ "obj-51", 1 ]
				}

			}
, 			{
				"patchline" : 				{
					"destination" : [ "obj-55", 0 ],
					"source" : [ "obj-51", 0 ]
				}

			}
, 			{
				"patchline" : 				{
					"destination" : [ "obj-51", 0 ],
					"source" : [ "obj-68", 0 ]
				}

			}
, 			{
				"patchline" : 				{
					"destination" : [ "obj-68", 1 ],
					"order" : 1,
					"source" : [ "obj-72", 1 ]
				}

			}
, 			{
				"patchline" : 				{
					"destination" : [ "obj-82", 0 ],
					"order" : 0,
					"source" : [ "obj-72", 1 ]
				}

			}
, 			{
				"patchline" : 				{
					"destination" : [ "obj-46", 0 ],
					"order" : 1,
					"source" : [ "obj-75", 0 ]
				}

			}
, 			{
				"patchline" : 				{
					"destination" : [ "obj-98", 0 ],
					"order" : 0,
					"source" : [ "obj-75", 0 ]
				}

			}
, 			{
				"patchline" : 				{
					"destination" : [ "obj-99", 0 ],
					"source" : [ "obj-77", 0 ]
				}

			}
, 			{
				"patchline" : 				{
					"destination" : [ "obj-13", 0 ],
					"source" : [ "obj-8", 0 ]
				}

			}
, 			{
				"patchline" : 				{
					"destination" : [ "obj-55", 0 ],
					"source" : [ "obj-82", 0 ]
				}

			}
, 			{
				"patchline" : 				{
					"destination" : [ "obj-55", 0 ],
					"source" : [ "obj-85", 0 ]
				}

			}
, 			{
				"patchline" : 				{
					"destination" : [ "obj-10", 0 ],
					"source" : [ "obj-9", 0 ]
				}

			}
, 			{
				"patchline" : 				{
					"destination" : [ "obj-8", 1 ],
					"source" : [ "obj-9", 1 ]
				}

			}
, 			{
				"patchline" : 				{
					"destination" : [ "obj-110", 0 ],
					"source" : [ "obj-90", 0 ]
				}

			}
, 			{
				"patchline" : 				{
					"destination" : [ "obj-98", 1 ],
					"source" : [ "obj-93", 0 ]
				}

			}
, 			{
				"patchline" : 				{
					"destination" : [ "obj-93", 1 ],
					"source" : [ "obj-95", 0 ]
				}

			}
, 			{
				"patchline" : 				{
					"destination" : [ "obj-109", 0 ],
					"source" : [ "obj-98", 0 ]
				}

			}
, 			{
				"patchline" : 				{
					"destination" : [ "obj-75", 0 ],
					"source" : [ "obj-99", 0 ]
				}

			}
, 			{
				"patchline" : 				{
					"destination" : [ "obj-93", 0 ],
					"source" : [ "obj-99", 1 ]
				}

			}
 ],
		"parameters" : 		{
			"obj-110" : [ "live.gain~", "live.gain~", 0 ],
			"obj-113" : [ "live.gain~[1]", "live.gain~", 0 ],
			"obj-45::obj-48" : [ "live.numbox", "live.numbox", 0 ],
			"parameterbanks" : 			{
				"0" : 				{
					"index" : 0,
					"name" : "",
					"parameters" : [ "-", "-", "-", "-", "-", "-", "-", "-" ]
				}

			}
,
			"inherited_shortname" : 1
		}
,
		"dependency_cache" : [ 			{
				"name" : "bach.approx.maxpat",
				"bootpath" : "~/Documents/Max 8/Packages/bach/patchers",
				"patcherrelativepath" : "../../../../../Documents/Max 8/Packages/bach/patchers",
				"type" : "JSON",
				"implicit" : 1
			}
, 			{
				"name" : "bach.args.mxo",
				"type" : "iLaX"
			}
, 			{
				"name" : "bach.expr.mxo",
				"type" : "iLaX"
			}
, 			{
				"name" : "bach.gt.mxo",
				"type" : "iLaX"
			}
, 			{
				"name" : "bach.portal.mxo",
				"type" : "iLaX"
			}
, 			{
				"name" : "bach.roll.mxo",
				"type" : "iLaX"
			}
, 			{
				"name" : "bach.times.maxpat",
				"bootpath" : "~/Documents/Max 8/Packages/bach/patchers",
				"patcherrelativepath" : "../../../../../Documents/Max 8/Packages/bach/patchers",
				"type" : "JSON",
				"implicit" : 1
			}
, 			{
				"name" : "bach.wrap.mxo",
				"type" : "iLaX"
			}
, 			{
				"name" : "cello-f2.aif",
				"bootpath" : "C74:/media/msp",
				"type" : "AIFF",
				"implicit" : 1
			}
, 			{
				"name" : "dsp_cpu.maxpat",
				"bootpath" : "~/Music/max/desktop/bpatchers",
				"patcherrelativepath" : "../../../desktop/bpatchers",
				"type" : "JSON",
				"implicit" : 1
			}
, 			{
				"name" : "sigmund~.mxo",
				"type" : "iLaX"
			}
, 			{
				"name" : "signature.maxpat",
				"bootpath" : "~/Music/max",
				"patcherrelativepath" : "../../..",
				"type" : "JSON",
				"implicit" : 1
			}
 ],
		"autosave" : 0
	}

}
